<?xml version="1.0" encoding="utf-8" standalone="no"?>
<!DOCTYPE svg PUBLIC "-//W3C//DTD SVG 1.1//EN"
  "http://www.w3.org/Graphics/SVG/1.1/DTD/svg11.dtd">
<svg xmlns:xlink="http://www.w3.org/1999/xlink" width="1288.001875pt" height="351.49375pt" viewBox="0 0 1288.001875 351.49375" xmlns="http://www.w3.org/2000/svg" version="1.1">
 <metadata>
  <rdf:RDF xmlns:dc="http://purl.org/dc/elements/1.1/" xmlns:cc="http://creativecommons.org/ns#" xmlns:rdf="http://www.w3.org/1999/02/22-rdf-syntax-ns#">
   <cc:Work>
    <dc:type rdf:resource="http://purl.org/dc/dcmitype/StillImage"/>
    <dc:date>2024-05-27T12:40:25.485663</dc:date>
    <dc:format>image/svg+xml</dc:format>
    <dc:creator>
     <cc:Agent>
      <dc:title>Matplotlib v3.7.0, https://matplotlib.org/</dc:title>
     </cc:Agent>
    </dc:creator>
   </cc:Work>
  </rdf:RDF>
 </metadata>
 <defs>
  <style type="text/css">*{stroke-linejoin: round; stroke-linecap: butt}</style>
 </defs>
 <g id="figure_1">
  <g id="patch_1">
   <path d="M 0 351.49375 
L 1288.001875 351.49375 
L 1288.001875 0 
L 0 0 
z
" style="fill: #ffffff"/>
  </g>
  <g id="axes_1">
   <g id="patch_2">
    <path d="M 66.181875 296.516875 
L 440.108542 296.516875 
L 440.108542 28.396875 
L 66.181875 28.396875 
z
" style="fill: #ffffff"/>
   </g>
   <g id="matplotlib.axis_1">
    <g id="xtick_1">
     <g id="line2d_1">
      <defs>
       <path id="mb381bb8b92" d="M 0 0 
L 0 3.5 
" style="stroke: #000000; stroke-width: 0.8"/>
      </defs>
      <g>
       <use xlink:href="#mb381bb8b92" x="83.178542" y="296.516875" style="stroke: #000000; stroke-width: 0.8"/>
      </g>
     </g>
     <g id="text_1">
      <!-- 1 -->
      <g transform="translate(77.452292 317.194062) scale(0.18 -0.18)">
       <defs>
        <path id="DejaVuSans-31" d="M 794 531 
L 1825 531 
L 1825 4091 
L 703 3866 
L 703 4441 
L 1819 4666 
L 2450 4666 
L 2450 531 
L 3481 531 
L 3481 0 
L 794 0 
L 794 531 
z
" transform="scale(0.015625)"/>
       </defs>
       <use xlink:href="#DejaVuSans-31"/>
      </g>
     </g>
    </g>
    <g id="xtick_2">
     <g id="line2d_2">
      <g>
       <use xlink:href="#mb381bb8b92" x="219.151875" y="296.516875" style="stroke: #000000; stroke-width: 0.8"/>
      </g>
     </g>
     <g id="text_2">
      <!-- 3 -->
      <g transform="translate(213.425625 317.194062) scale(0.18 -0.18)">
       <defs>
        <path id="DejaVuSans-33" d="M 2597 2516 
Q 3050 2419 3304 2112 
Q 3559 1806 3559 1356 
Q 3559 666 3084 287 
Q 2609 -91 1734 -91 
Q 1441 -91 1130 -33 
Q 819 25 488 141 
L 488 750 
Q 750 597 1062 519 
Q 1375 441 1716 441 
Q 2309 441 2620 675 
Q 2931 909 2931 1356 
Q 2931 1769 2642 2001 
Q 2353 2234 1838 2234 
L 1294 2234 
L 1294 2753 
L 1863 2753 
Q 2328 2753 2575 2939 
Q 2822 3125 2822 3475 
Q 2822 3834 2567 4026 
Q 2313 4219 1838 4219 
Q 1578 4219 1281 4162 
Q 984 4106 628 3988 
L 628 4550 
Q 988 4650 1302 4700 
Q 1616 4750 1894 4750 
Q 2613 4750 3031 4423 
Q 3450 4097 3450 3541 
Q 3450 3153 3228 2886 
Q 3006 2619 2597 2516 
z
" transform="scale(0.015625)"/>
       </defs>
       <use xlink:href="#DejaVuSans-33"/>
      </g>
     </g>
    </g>
    <g id="xtick_3">
     <g id="line2d_3">
      <g>
       <use xlink:href="#mb381bb8b92" x="355.125208" y="296.516875" style="stroke: #000000; stroke-width: 0.8"/>
      </g>
     </g>
     <g id="text_3">
      <!-- 5 -->
      <g transform="translate(349.398958 317.194062) scale(0.18 -0.18)">
       <defs>
        <path id="DejaVuSans-35" d="M 691 4666 
L 3169 4666 
L 3169 4134 
L 1269 4134 
L 1269 2991 
Q 1406 3038 1543 3061 
Q 1681 3084 1819 3084 
Q 2600 3084 3056 2656 
Q 3513 2228 3513 1497 
Q 3513 744 3044 326 
Q 2575 -91 1722 -91 
Q 1428 -91 1123 -41 
Q 819 9 494 109 
L 494 744 
Q 775 591 1075 516 
Q 1375 441 1709 441 
Q 2250 441 2565 725 
Q 2881 1009 2881 1497 
Q 2881 1984 2565 2268 
Q 2250 2553 1709 2553 
Q 1456 2553 1204 2497 
Q 953 2441 691 2322 
L 691 4666 
z
" transform="scale(0.015625)"/>
       </defs>
       <use xlink:href="#DejaVuSans-35"/>
      </g>
     </g>
    </g>
    <g id="text_4">
     <!-- Block -->
     <g transform="translate(226.098333 340.134375) scale(0.2 -0.2)">
      <defs>
       <path id="DejaVuSans-42" d="M 1259 2228 
L 1259 519 
L 2272 519 
Q 2781 519 3026 730 
Q 3272 941 3272 1375 
Q 3272 1813 3026 2020 
Q 2781 2228 2272 2228 
L 1259 2228 
z
M 1259 4147 
L 1259 2741 
L 2194 2741 
Q 2656 2741 2882 2914 
Q 3109 3088 3109 3444 
Q 3109 3797 2882 3972 
Q 2656 4147 2194 4147 
L 1259 4147 
z
M 628 4666 
L 2241 4666 
Q 2963 4666 3353 4366 
Q 3744 4066 3744 3513 
Q 3744 3084 3544 2831 
Q 3344 2578 2956 2516 
Q 3422 2416 3680 2098 
Q 3938 1781 3938 1306 
Q 3938 681 3513 340 
Q 3088 0 2303 0 
L 628 0 
L 628 4666 
z
" transform="scale(0.015625)"/>
       <path id="DejaVuSans-6c" d="M 603 4863 
L 1178 4863 
L 1178 0 
L 603 0 
L 603 4863 
z
" transform="scale(0.015625)"/>
       <path id="DejaVuSans-6f" d="M 1959 3097 
Q 1497 3097 1228 2736 
Q 959 2375 959 1747 
Q 959 1119 1226 758 
Q 1494 397 1959 397 
Q 2419 397 2687 759 
Q 2956 1122 2956 1747 
Q 2956 2369 2687 2733 
Q 2419 3097 1959 3097 
z
M 1959 3584 
Q 2709 3584 3137 3096 
Q 3566 2609 3566 1747 
Q 3566 888 3137 398 
Q 2709 -91 1959 -91 
Q 1206 -91 779 398 
Q 353 888 353 1747 
Q 353 2609 779 3096 
Q 1206 3584 1959 3584 
z
" transform="scale(0.015625)"/>
       <path id="DejaVuSans-63" d="M 3122 3366 
L 3122 2828 
Q 2878 2963 2633 3030 
Q 2388 3097 2138 3097 
Q 1578 3097 1268 2742 
Q 959 2388 959 1747 
Q 959 1106 1268 751 
Q 1578 397 2138 397 
Q 2388 397 2633 464 
Q 2878 531 3122 666 
L 3122 134 
Q 2881 22 2623 -34 
Q 2366 -91 2075 -91 
Q 1284 -91 818 406 
Q 353 903 353 1747 
Q 353 2603 823 3093 
Q 1294 3584 2113 3584 
Q 2378 3584 2631 3529 
Q 2884 3475 3122 3366 
z
" transform="scale(0.015625)"/>
       <path id="DejaVuSans-6b" d="M 581 4863 
L 1159 4863 
L 1159 1991 
L 2875 3500 
L 3609 3500 
L 1753 1863 
L 3688 0 
L 2938 0 
L 1159 1709 
L 1159 0 
L 581 0 
L 581 4863 
z
" transform="scale(0.015625)"/>
      </defs>
      <use xlink:href="#DejaVuSans-42"/>
      <use xlink:href="#DejaVuSans-6c" x="68.603516"/>
      <use xlink:href="#DejaVuSans-6f" x="96.386719"/>
      <use xlink:href="#DejaVuSans-63" x="157.568359"/>
      <use xlink:href="#DejaVuSans-6b" x="212.548828"/>
     </g>
    </g>
   </g>
   <g id="matplotlib.axis_2">
    <g id="ytick_1">
     <g id="line2d_4">
      <defs>
       <path id="m1c99e2ef59" d="M 0 0 
L -3.5 0 
" style="stroke: #000000; stroke-width: 0.8"/>
      </defs>
      <g>
       <use xlink:href="#m1c99e2ef59" x="66.181875" y="291.729018" style="stroke: #000000; stroke-width: 0.8"/>
      </g>
     </g>
     <g id="text_5">
      <!-- 0.0 -->
      <g transform="translate(30.55625 298.567612) scale(0.18 -0.18)">
       <defs>
        <path id="DejaVuSans-30" d="M 2034 4250 
Q 1547 4250 1301 3770 
Q 1056 3291 1056 2328 
Q 1056 1369 1301 889 
Q 1547 409 2034 409 
Q 2525 409 2770 889 
Q 3016 1369 3016 2328 
Q 3016 3291 2770 3770 
Q 2525 4250 2034 4250 
z
M 2034 4750 
Q 2819 4750 3233 4129 
Q 3647 3509 3647 2328 
Q 3647 1150 3233 529 
Q 2819 -91 2034 -91 
Q 1250 -91 836 529 
Q 422 1150 422 2328 
Q 422 3509 836 4129 
Q 1250 4750 2034 4750 
z
" transform="scale(0.015625)"/>
        <path id="DejaVuSans-2e" d="M 684 794 
L 1344 794 
L 1344 0 
L 684 0 
L 684 794 
z
" transform="scale(0.015625)"/>
       </defs>
       <use xlink:href="#DejaVuSans-30"/>
       <use xlink:href="#DejaVuSans-2e" x="63.623047"/>
       <use xlink:href="#DejaVuSans-30" x="95.410156"/>
      </g>
     </g>
    </g>
    <g id="ytick_2">
     <g id="line2d_5">
      <g>
       <use xlink:href="#m1c99e2ef59" x="66.181875" y="243.850446" style="stroke: #000000; stroke-width: 0.8"/>
      </g>
     </g>
     <g id="text_6">
      <!-- 0.1 -->
      <g transform="translate(30.55625 250.68904) scale(0.18 -0.18)">
       <use xlink:href="#DejaVuSans-30"/>
       <use xlink:href="#DejaVuSans-2e" x="63.623047"/>
       <use xlink:href="#DejaVuSans-31" x="95.410156"/>
      </g>
     </g>
    </g>
    <g id="ytick_3">
     <g id="line2d_6">
      <g>
       <use xlink:href="#m1c99e2ef59" x="66.181875" y="195.971875" style="stroke: #000000; stroke-width: 0.8"/>
      </g>
     </g>
     <g id="text_7">
      <!-- 0.2 -->
      <g transform="translate(30.55625 202.810469) scale(0.18 -0.18)">
       <defs>
        <path id="DejaVuSans-32" d="M 1228 531 
L 3431 531 
L 3431 0 
L 469 0 
L 469 531 
Q 828 903 1448 1529 
Q 2069 2156 2228 2338 
Q 2531 2678 2651 2914 
Q 2772 3150 2772 3378 
Q 2772 3750 2511 3984 
Q 2250 4219 1831 4219 
Q 1534 4219 1204 4116 
Q 875 4013 500 3803 
L 500 4441 
Q 881 4594 1212 4672 
Q 1544 4750 1819 4750 
Q 2544 4750 2975 4387 
Q 3406 4025 3406 3419 
Q 3406 3131 3298 2873 
Q 3191 2616 2906 2266 
Q 2828 2175 2409 1742 
Q 1991 1309 1228 531 
z
" transform="scale(0.015625)"/>
       </defs>
       <use xlink:href="#DejaVuSans-30"/>
       <use xlink:href="#DejaVuSans-2e" x="63.623047"/>
       <use xlink:href="#DejaVuSans-32" x="95.410156"/>
      </g>
     </g>
    </g>
    <g id="ytick_4">
     <g id="line2d_7">
      <g>
       <use xlink:href="#m1c99e2ef59" x="66.181875" y="148.093304" style="stroke: #000000; stroke-width: 0.8"/>
      </g>
     </g>
     <g id="text_8">
      <!-- 0.3 -->
      <g transform="translate(30.55625 154.931897) scale(0.18 -0.18)">
       <use xlink:href="#DejaVuSans-30"/>
       <use xlink:href="#DejaVuSans-2e" x="63.623047"/>
       <use xlink:href="#DejaVuSans-33" x="95.410156"/>
      </g>
     </g>
    </g>
    <g id="ytick_5">
     <g id="line2d_8">
      <g>
       <use xlink:href="#m1c99e2ef59" x="66.181875" y="100.214732" style="stroke: #000000; stroke-width: 0.8"/>
      </g>
     </g>
     <g id="text_9">
      <!-- 0.4 -->
      <g transform="translate(30.55625 107.053326) scale(0.18 -0.18)">
       <defs>
        <path id="DejaVuSans-34" d="M 2419 4116 
L 825 1625 
L 2419 1625 
L 2419 4116 
z
M 2253 4666 
L 3047 4666 
L 3047 1625 
L 3713 1625 
L 3713 1100 
L 3047 1100 
L 3047 0 
L 2419 0 
L 2419 1100 
L 313 1100 
L 313 1709 
L 2253 4666 
z
" transform="scale(0.015625)"/>
       </defs>
       <use xlink:href="#DejaVuSans-30"/>
       <use xlink:href="#DejaVuSans-2e" x="63.623047"/>
       <use xlink:href="#DejaVuSans-34" x="95.410156"/>
      </g>
     </g>
    </g>
    <g id="ytick_6">
     <g id="line2d_9">
      <g>
       <use xlink:href="#m1c99e2ef59" x="66.181875" y="52.336161" style="stroke: #000000; stroke-width: 0.8"/>
      </g>
     </g>
     <g id="text_10">
      <!-- 0.5 -->
      <g transform="translate(30.55625 59.174754) scale(0.18 -0.18)">
       <use xlink:href="#DejaVuSans-30"/>
       <use xlink:href="#DejaVuSans-2e" x="63.623047"/>
       <use xlink:href="#DejaVuSans-35" x="95.410156"/>
      </g>
     </g>
    </g>
    <g id="text_11">
     <!-- P(Error) -->
     <g transform="translate(22.396875 200.66) rotate(-90) scale(0.2 -0.2)">
      <defs>
       <path id="DejaVuSans-50" d="M 1259 4147 
L 1259 2394 
L 2053 2394 
Q 2494 2394 2734 2622 
Q 2975 2850 2975 3272 
Q 2975 3691 2734 3919 
Q 2494 4147 2053 4147 
L 1259 4147 
z
M 628 4666 
L 2053 4666 
Q 2838 4666 3239 4311 
Q 3641 3956 3641 3272 
Q 3641 2581 3239 2228 
Q 2838 1875 2053 1875 
L 1259 1875 
L 1259 0 
L 628 0 
L 628 4666 
z
" transform="scale(0.015625)"/>
       <path id="DejaVuSans-28" d="M 1984 4856 
Q 1566 4138 1362 3434 
Q 1159 2731 1159 2009 
Q 1159 1288 1364 580 
Q 1569 -128 1984 -844 
L 1484 -844 
Q 1016 -109 783 600 
Q 550 1309 550 2009 
Q 550 2706 781 3412 
Q 1013 4119 1484 4856 
L 1984 4856 
z
" transform="scale(0.015625)"/>
       <path id="DejaVuSans-45" d="M 628 4666 
L 3578 4666 
L 3578 4134 
L 1259 4134 
L 1259 2753 
L 3481 2753 
L 3481 2222 
L 1259 2222 
L 1259 531 
L 3634 531 
L 3634 0 
L 628 0 
L 628 4666 
z
" transform="scale(0.015625)"/>
       <path id="DejaVuSans-72" d="M 2631 2963 
Q 2534 3019 2420 3045 
Q 2306 3072 2169 3072 
Q 1681 3072 1420 2755 
Q 1159 2438 1159 1844 
L 1159 0 
L 581 0 
L 581 3500 
L 1159 3500 
L 1159 2956 
Q 1341 3275 1631 3429 
Q 1922 3584 2338 3584 
Q 2397 3584 2469 3576 
Q 2541 3569 2628 3553 
L 2631 2963 
z
" transform="scale(0.015625)"/>
       <path id="DejaVuSans-29" d="M 513 4856 
L 1013 4856 
Q 1481 4119 1714 3412 
Q 1947 2706 1947 2009 
Q 1947 1309 1714 600 
Q 1481 -109 1013 -844 
L 513 -844 
Q 928 -128 1133 580 
Q 1338 1288 1338 2009 
Q 1338 2731 1133 3434 
Q 928 4138 513 4856 
z
" transform="scale(0.015625)"/>
      </defs>
      <use xlink:href="#DejaVuSans-50"/>
      <use xlink:href="#DejaVuSans-28" x="60.302734"/>
      <use xlink:href="#DejaVuSans-45" x="99.316406"/>
      <use xlink:href="#DejaVuSans-72" x="162.5"/>
      <use xlink:href="#DejaVuSans-72" x="201.863281"/>
      <use xlink:href="#DejaVuSans-6f" x="240.726562"/>
      <use xlink:href="#DejaVuSans-72" x="301.908203"/>
      <use xlink:href="#DejaVuSans-29" x="343.021484"/>
     </g>
    </g>
   </g>
   <g id="line2d_10">
    <path d="M 83.178542 187.353732 
L 151.165208 275.450304 
L 219.151875 287.898732 
L 287.138542 289.813875 
L 355.125208 288.856304 
L 423.111875 288.856304 
" clip-path="url(#p68b8e4cc83)" style="fill: none; stroke: #e0e1dd; stroke-width: 3; stroke-linecap: square"/>
    <defs>
     <path id="m5256ac7f04" d="M 0 4 
C 1.060812 4 2.078319 3.578535 2.828427 2.828427 
C 3.578535 2.078319 4 1.060812 4 0 
C 4 -1.060812 3.578535 -2.078319 2.828427 -2.828427 
C 2.078319 -3.578535 1.060812 -4 0 -4 
C -1.060812 -4 -2.078319 -3.578535 -2.828427 -2.828427 
C -3.578535 -2.078319 -4 -1.060812 -4 0 
C -4 1.060812 -3.578535 2.078319 -2.828427 2.828427 
C -2.078319 3.578535 -1.060812 4 0 4 
z
" style="stroke: #e0e1dd"/>
    </defs>
    <g clip-path="url(#p68b8e4cc83)">
     <use xlink:href="#m5256ac7f04" x="83.178542" y="187.353732" style="fill: #e0e1dd; stroke: #e0e1dd"/>
     <use xlink:href="#m5256ac7f04" x="151.165208" y="275.450304" style="fill: #e0e1dd; stroke: #e0e1dd"/>
     <use xlink:href="#m5256ac7f04" x="219.151875" y="287.898732" style="fill: #e0e1dd; stroke: #e0e1dd"/>
     <use xlink:href="#m5256ac7f04" x="287.138542" y="289.813875" style="fill: #e0e1dd; stroke: #e0e1dd"/>
     <use xlink:href="#m5256ac7f04" x="355.125208" y="288.856304" style="fill: #e0e1dd; stroke: #e0e1dd"/>
     <use xlink:href="#m5256ac7f04" x="423.111875" y="288.856304" style="fill: #e0e1dd; stroke: #e0e1dd"/>
    </g>
   </g>
   <g id="line2d_11">
    <path d="M 83.178542 109.790446 
L 151.165208 213.208161 
L 219.151875 251.511018 
L 287.138542 263.001875 
L 355.125208 273.535161 
L 423.111875 275.450304 
" clip-path="url(#p68b8e4cc83)" style="fill: none; stroke: #b6b9b9; stroke-width: 3; stroke-linecap: square"/>
    <defs>
     <path id="me50286e426" d="M -4 4 
L 4 -4 
M -4 -4 
L 4 4 
" style="stroke: #b6b9b9"/>
    </defs>
    <g clip-path="url(#p68b8e4cc83)">
     <use xlink:href="#me50286e426" x="83.178542" y="109.790446" style="fill: #b6b9b9; stroke: #b6b9b9"/>
     <use xlink:href="#me50286e426" x="151.165208" y="213.208161" style="fill: #b6b9b9; stroke: #b6b9b9"/>
     <use xlink:href="#me50286e426" x="219.151875" y="251.511018" style="fill: #b6b9b9; stroke: #b6b9b9"/>
     <use xlink:href="#me50286e426" x="287.138542" y="263.001875" style="fill: #b6b9b9; stroke: #b6b9b9"/>
     <use xlink:href="#me50286e426" x="355.125208" y="273.535161" style="fill: #b6b9b9; stroke: #b6b9b9"/>
     <use xlink:href="#me50286e426" x="423.111875" y="275.450304" style="fill: #b6b9b9; stroke: #b6b9b9"/>
    </g>
   </g>
   <g id="line2d_12">
    <path d="M 83.178542 70.530018 
L 151.165208 152.881161 
L 219.151875 184.481018 
L 287.138542 219.911161 
L 355.125208 250.553446 
L 423.111875 252.468589 
" clip-path="url(#p68b8e4cc83)" style="fill: none; stroke: #8c9295; stroke-width: 3; stroke-linecap: square"/>
    <defs>
     <path id="mf443adc702" d="M -4 0 
L 4 0 
M 0 4 
L 0 -4 
" style="stroke: #8c9295"/>
    </defs>
    <g clip-path="url(#p68b8e4cc83)">
     <use xlink:href="#mf443adc702" x="83.178542" y="70.530018" style="fill: #8c9295; stroke: #8c9295"/>
     <use xlink:href="#mf443adc702" x="151.165208" y="152.881161" style="fill: #8c9295; stroke: #8c9295"/>
     <use xlink:href="#mf443adc702" x="219.151875" y="184.481018" style="fill: #8c9295; stroke: #8c9295"/>
     <use xlink:href="#mf443adc702" x="287.138542" y="219.911161" style="fill: #8c9295; stroke: #8c9295"/>
     <use xlink:href="#mf443adc702" x="355.125208" y="250.553446" style="fill: #8c9295; stroke: #8c9295"/>
     <use xlink:href="#mf443adc702" x="423.111875" y="252.468589" style="fill: #8c9295; stroke: #8c9295"/>
    </g>
   </g>
   <g id="line2d_13">
    <path d="M 83.178542 88.723875 
L 151.165208 150.008446 
L 219.151875 183.523446 
L 287.138542 207.462732 
L 355.125208 219.911161 
L 423.111875 238.105018 
" clip-path="url(#p68b8e4cc83)" style="fill: none; stroke: #616a72; stroke-width: 3; stroke-linecap: square"/>
    <defs>
     <path id="m9624d8de57" d="M 0 -4 
L -0.898056 -1.236068 
L -3.804226 -1.236068 
L -1.453085 0.472136 
L -2.351141 3.236068 
L -0 1.527864 
L 2.351141 3.236068 
L 1.453085 0.472136 
L 3.804226 -1.236068 
L 0.898056 -1.236068 
z
" style="stroke: #616a72; stroke-linejoin: bevel"/>
    </defs>
    <g clip-path="url(#p68b8e4cc83)">
     <use xlink:href="#m9624d8de57" x="83.178542" y="88.723875" style="fill: #616a72; stroke: #616a72; stroke-linejoin: bevel"/>
     <use xlink:href="#m9624d8de57" x="151.165208" y="150.008446" style="fill: #616a72; stroke: #616a72; stroke-linejoin: bevel"/>
     <use xlink:href="#m9624d8de57" x="219.151875" y="183.523446" style="fill: #616a72; stroke: #616a72; stroke-linejoin: bevel"/>
     <use xlink:href="#m9624d8de57" x="287.138542" y="207.462732" style="fill: #616a72; stroke: #616a72; stroke-linejoin: bevel"/>
     <use xlink:href="#m9624d8de57" x="355.125208" y="219.911161" style="fill: #616a72; stroke: #616a72; stroke-linejoin: bevel"/>
     <use xlink:href="#m9624d8de57" x="423.111875" y="238.105018" style="fill: #616a72; stroke: #616a72; stroke-linejoin: bevel"/>
    </g>
   </g>
   <g id="line2d_14">
    <path d="M 83.178542 67.657304 
L 151.165208 130.857018 
L 219.151875 180.650732 
L 287.138542 222.783875 
L 355.125208 238.105018 
L 423.111875 250.553446 
" clip-path="url(#p68b8e4cc83)" style="fill: none; stroke: #37434e; stroke-width: 3; stroke-linecap: square"/>
    <defs>
     <path id="me5a2be4755" d="M -0 4 
L 4 -4 
L -4 -4 
z
" style="stroke: #37434e; stroke-linejoin: miter"/>
    </defs>
    <g clip-path="url(#p68b8e4cc83)">
     <use xlink:href="#me5a2be4755" x="83.178542" y="67.657304" style="fill: #37434e; stroke: #37434e; stroke-linejoin: miter"/>
     <use xlink:href="#me5a2be4755" x="151.165208" y="130.857018" style="fill: #37434e; stroke: #37434e; stroke-linejoin: miter"/>
     <use xlink:href="#me5a2be4755" x="219.151875" y="180.650732" style="fill: #37434e; stroke: #37434e; stroke-linejoin: miter"/>
     <use xlink:href="#me5a2be4755" x="287.138542" y="222.783875" style="fill: #37434e; stroke: #37434e; stroke-linejoin: miter"/>
     <use xlink:href="#me5a2be4755" x="355.125208" y="238.105018" style="fill: #37434e; stroke: #37434e; stroke-linejoin: miter"/>
     <use xlink:href="#me5a2be4755" x="423.111875" y="250.553446" style="fill: #37434e; stroke: #37434e; stroke-linejoin: miter"/>
    </g>
   </g>
   <g id="line2d_15">
    <path d="M 83.178542 51.378589 
L 151.165208 126.069161 
L 219.151875 153.838732 
L 287.138542 172.990161 
L 355.125208 185.438589 
L 423.111875 197.887018 
" clip-path="url(#p68b8e4cc83)" style="fill: none; stroke: #0d1b2a; stroke-width: 3; stroke-linecap: square"/>
    <defs>
     <path id="m8f6367ee02" d="M 0 -4 
L -4 4 
L 4 4 
z
" style="stroke: #0d1b2a; stroke-linejoin: miter"/>
    </defs>
    <g clip-path="url(#p68b8e4cc83)">
     <use xlink:href="#m8f6367ee02" x="83.178542" y="51.378589" style="fill: #0d1b2a; stroke: #0d1b2a; stroke-linejoin: miter"/>
     <use xlink:href="#m8f6367ee02" x="151.165208" y="126.069161" style="fill: #0d1b2a; stroke: #0d1b2a; stroke-linejoin: miter"/>
     <use xlink:href="#m8f6367ee02" x="219.151875" y="153.838732" style="fill: #0d1b2a; stroke: #0d1b2a; stroke-linejoin: miter"/>
     <use xlink:href="#m8f6367ee02" x="287.138542" y="172.990161" style="fill: #0d1b2a; stroke: #0d1b2a; stroke-linejoin: miter"/>
     <use xlink:href="#m8f6367ee02" x="355.125208" y="185.438589" style="fill: #0d1b2a; stroke: #0d1b2a; stroke-linejoin: miter"/>
     <use xlink:href="#m8f6367ee02" x="423.111875" y="197.887018" style="fill: #0d1b2a; stroke: #0d1b2a; stroke-linejoin: miter"/>
    </g>
   </g>
   <g id="patch_3">
    <path d="M 66.181875 296.516875 
L 66.181875 28.396875 
" style="fill: none; stroke: #000000; stroke-width: 0.8; stroke-linejoin: miter; stroke-linecap: square"/>
   </g>
   <g id="patch_4">
    <path d="M 66.181875 296.516875 
L 440.108542 296.516875 
" style="fill: none; stroke: #000000; stroke-width: 0.8; stroke-linejoin: miter; stroke-linecap: square"/>
   </g>
   <g id="text_12">
    <!-- Human -->
    <g transform="translate(217.081146 22.396875) scale(0.2 -0.2)">
     <defs>
      <path id="DejaVuSans-48" d="M 628 4666 
L 1259 4666 
L 1259 2753 
L 3553 2753 
L 3553 4666 
L 4184 4666 
L 4184 0 
L 3553 0 
L 3553 2222 
L 1259 2222 
L 1259 0 
L 628 0 
L 628 4666 
z
" transform="scale(0.015625)"/>
      <path id="DejaVuSans-75" d="M 544 1381 
L 544 3500 
L 1119 3500 
L 1119 1403 
Q 1119 906 1312 657 
Q 1506 409 1894 409 
Q 2359 409 2629 706 
Q 2900 1003 2900 1516 
L 2900 3500 
L 3475 3500 
L 3475 0 
L 2900 0 
L 2900 538 
Q 2691 219 2414 64 
Q 2138 -91 1772 -91 
Q 1169 -91 856 284 
Q 544 659 544 1381 
z
M 1991 3584 
L 1991 3584 
z
" transform="scale(0.015625)"/>
      <path id="DejaVuSans-6d" d="M 3328 2828 
Q 3544 3216 3844 3400 
Q 4144 3584 4550 3584 
Q 5097 3584 5394 3201 
Q 5691 2819 5691 2113 
L 5691 0 
L 5113 0 
L 5113 2094 
Q 5113 2597 4934 2840 
Q 4756 3084 4391 3084 
Q 3944 3084 3684 2787 
Q 3425 2491 3425 1978 
L 3425 0 
L 2847 0 
L 2847 2094 
Q 2847 2600 2669 2842 
Q 2491 3084 2119 3084 
Q 1678 3084 1418 2786 
Q 1159 2488 1159 1978 
L 1159 0 
L 581 0 
L 581 3500 
L 1159 3500 
L 1159 2956 
Q 1356 3278 1631 3431 
Q 1906 3584 2284 3584 
Q 2666 3584 2933 3390 
Q 3200 3197 3328 2828 
z
" transform="scale(0.015625)"/>
      <path id="DejaVuSans-61" d="M 2194 1759 
Q 1497 1759 1228 1600 
Q 959 1441 959 1056 
Q 959 750 1161 570 
Q 1363 391 1709 391 
Q 2188 391 2477 730 
Q 2766 1069 2766 1631 
L 2766 1759 
L 2194 1759 
z
M 3341 1997 
L 3341 0 
L 2766 0 
L 2766 531 
Q 2569 213 2275 61 
Q 1981 -91 1556 -91 
Q 1019 -91 701 211 
Q 384 513 384 1019 
Q 384 1609 779 1909 
Q 1175 2209 1959 2209 
L 2766 2209 
L 2766 2266 
Q 2766 2663 2505 2880 
Q 2244 3097 1772 3097 
Q 1472 3097 1187 3025 
Q 903 2953 641 2809 
L 641 3341 
Q 956 3463 1253 3523 
Q 1550 3584 1831 3584 
Q 2591 3584 2966 3190 
Q 3341 2797 3341 1997 
z
" transform="scale(0.015625)"/>
      <path id="DejaVuSans-6e" d="M 3513 2113 
L 3513 0 
L 2938 0 
L 2938 2094 
Q 2938 2591 2744 2837 
Q 2550 3084 2163 3084 
Q 1697 3084 1428 2787 
Q 1159 2491 1159 1978 
L 1159 0 
L 581 0 
L 581 3500 
L 1159 3500 
L 1159 2956 
Q 1366 3272 1645 3428 
Q 1925 3584 2291 3584 
Q 2894 3584 3203 3211 
Q 3513 2838 3513 2113 
z
" transform="scale(0.015625)"/>
     </defs>
     <use xlink:href="#DejaVuSans-48"/>
     <use xlink:href="#DejaVuSans-75" x="75.195312"/>
     <use xlink:href="#DejaVuSans-6d" x="138.574219"/>
     <use xlink:href="#DejaVuSans-61" x="235.986328"/>
     <use xlink:href="#DejaVuSans-6e" x="297.265625"/>
    </g>
   </g>
  </g>
  <g id="axes_2">
   <g id="patch_5">
    <path d="M 486.528542 296.516875 
L 860.455208 296.516875 
L 860.455208 28.396875 
L 486.528542 28.396875 
z
" style="fill: #ffffff"/>
   </g>
   <g id="matplotlib.axis_3">
    <g id="xtick_4">
     <g id="line2d_16">
      <g>
       <use xlink:href="#mb381bb8b92" x="503.525208" y="296.516875" style="stroke: #000000; stroke-width: 0.8"/>
      </g>
     </g>
     <g id="text_13">
      <!-- 1 -->
      <g transform="translate(497.798958 317.194062) scale(0.18 -0.18)">
       <use xlink:href="#DejaVuSans-31"/>
      </g>
     </g>
    </g>
    <g id="xtick_5">
     <g id="line2d_17">
      <g>
       <use xlink:href="#mb381bb8b92" x="639.498542" y="296.516875" style="stroke: #000000; stroke-width: 0.8"/>
      </g>
     </g>
     <g id="text_14">
      <!-- 3 -->
      <g transform="translate(633.772292 317.194062) scale(0.18 -0.18)">
       <use xlink:href="#DejaVuSans-33"/>
      </g>
     </g>
    </g>
    <g id="xtick_6">
     <g id="line2d_18">
      <g>
       <use xlink:href="#mb381bb8b92" x="775.471875" y="296.516875" style="stroke: #000000; stroke-width: 0.8"/>
      </g>
     </g>
     <g id="text_15">
      <!-- 5 -->
      <g transform="translate(769.745625 317.194062) scale(0.18 -0.18)">
       <use xlink:href="#DejaVuSans-35"/>
      </g>
     </g>
    </g>
   </g>
   <g id="matplotlib.axis_4">
    <g id="ytick_7">
     <g id="line2d_19">
      <g>
       <use xlink:href="#m1c99e2ef59" x="486.528542" y="291.729018" style="stroke: #000000; stroke-width: 0.8"/>
      </g>
     </g>
     <g id="text_16">
      <!-- 0.0 -->
      <g transform="translate(450.902917 298.567612) scale(0.18 -0.18)">
       <use xlink:href="#DejaVuSans-30"/>
       <use xlink:href="#DejaVuSans-2e" x="63.623047"/>
       <use xlink:href="#DejaVuSans-30" x="95.410156"/>
      </g>
     </g>
    </g>
    <g id="ytick_8">
     <g id="line2d_20">
      <g>
       <use xlink:href="#m1c99e2ef59" x="486.528542" y="243.850446" style="stroke: #000000; stroke-width: 0.8"/>
      </g>
     </g>
     <g id="text_17">
      <!-- 0.1 -->
      <g transform="translate(450.902917 250.68904) scale(0.18 -0.18)">
       <use xlink:href="#DejaVuSans-30"/>
       <use xlink:href="#DejaVuSans-2e" x="63.623047"/>
       <use xlink:href="#DejaVuSans-31" x="95.410156"/>
      </g>
     </g>
    </g>
    <g id="ytick_9">
     <g id="line2d_21">
      <g>
       <use xlink:href="#m1c99e2ef59" x="486.528542" y="195.971875" style="stroke: #000000; stroke-width: 0.8"/>
      </g>
     </g>
     <g id="text_18">
      <!-- 0.2 -->
      <g transform="translate(450.902917 202.810469) scale(0.18 -0.18)">
       <use xlink:href="#DejaVuSans-30"/>
       <use xlink:href="#DejaVuSans-2e" x="63.623047"/>
       <use xlink:href="#DejaVuSans-32" x="95.410156"/>
      </g>
     </g>
    </g>
    <g id="ytick_10">
     <g id="line2d_22">
      <g>
       <use xlink:href="#m1c99e2ef59" x="486.528542" y="148.093304" style="stroke: #000000; stroke-width: 0.8"/>
      </g>
     </g>
     <g id="text_19">
      <!-- 0.3 -->
      <g transform="translate(450.902917 154.931897) scale(0.18 -0.18)">
       <use xlink:href="#DejaVuSans-30"/>
       <use xlink:href="#DejaVuSans-2e" x="63.623047"/>
       <use xlink:href="#DejaVuSans-33" x="95.410156"/>
      </g>
     </g>
    </g>
    <g id="ytick_11">
     <g id="line2d_23">
      <g>
       <use xlink:href="#m1c99e2ef59" x="486.528542" y="100.214732" style="stroke: #000000; stroke-width: 0.8"/>
      </g>
     </g>
     <g id="text_20">
      <!-- 0.4 -->
      <g transform="translate(450.902917 107.053326) scale(0.18 -0.18)">
       <use xlink:href="#DejaVuSans-30"/>
       <use xlink:href="#DejaVuSans-2e" x="63.623047"/>
       <use xlink:href="#DejaVuSans-34" x="95.410156"/>
      </g>
     </g>
    </g>
    <g id="ytick_12">
     <g id="line2d_24">
      <g>
       <use xlink:href="#m1c99e2ef59" x="486.528542" y="52.336161" style="stroke: #000000; stroke-width: 0.8"/>
      </g>
     </g>
     <g id="text_21">
      <!-- 0.5 -->
      <g transform="translate(450.902917 59.174754) scale(0.18 -0.18)">
       <use xlink:href="#DejaVuSans-30"/>
       <use xlink:href="#DejaVuSans-2e" x="63.623047"/>
       <use xlink:href="#DejaVuSans-35" x="95.410156"/>
      </g>
     </g>
    </g>
   </g>
   <g id="line2d_25">
    <path d="M 503.525208 160.661429 
L 571.511875 257.437861 
L 639.498542 266.46185 
L 707.485208 267.546599 
L 775.471875 267.986109 
L 843.458542 268.322755 
" clip-path="url(#pc132720e71)" style="fill: none; stroke: #e0e1dd; stroke-width: 3; stroke-linecap: square"/>
    <g clip-path="url(#pc132720e71)">
     <use xlink:href="#m5256ac7f04" x="503.525208" y="160.661429" style="fill: #e0e1dd; stroke: #e0e1dd"/>
     <use xlink:href="#m5256ac7f04" x="571.511875" y="257.437861" style="fill: #e0e1dd; stroke: #e0e1dd"/>
     <use xlink:href="#m5256ac7f04" x="639.498542" y="266.46185" style="fill: #e0e1dd; stroke: #e0e1dd"/>
     <use xlink:href="#m5256ac7f04" x="707.485208" y="267.546599" style="fill: #e0e1dd; stroke: #e0e1dd"/>
     <use xlink:href="#m5256ac7f04" x="775.471875" y="267.986109" style="fill: #e0e1dd; stroke: #e0e1dd"/>
     <use xlink:href="#m5256ac7f04" x="843.458542" y="268.322755" style="fill: #e0e1dd; stroke: #e0e1dd"/>
    </g>
   </g>
   <g id="line2d_26">
    <path d="M 503.525208 102.505797 
L 571.511875 223.530107 
L 639.498542 252.687409 
L 707.485208 258.185964 
L 775.471875 259.02758 
L 843.458542 259.579305 
" clip-path="url(#pc132720e71)" style="fill: none; stroke: #b6b9b9; stroke-width: 3; stroke-linecap: square"/>
    <g clip-path="url(#pc132720e71)">
     <use xlink:href="#me50286e426" x="503.525208" y="102.505797" style="fill: #b6b9b9; stroke: #b6b9b9"/>
     <use xlink:href="#me50286e426" x="571.511875" y="223.530107" style="fill: #b6b9b9; stroke: #b6b9b9"/>
     <use xlink:href="#me50286e426" x="639.498542" y="252.687409" style="fill: #b6b9b9; stroke: #b6b9b9"/>
     <use xlink:href="#me50286e426" x="707.485208" y="258.185964" style="fill: #b6b9b9; stroke: #b6b9b9"/>
     <use xlink:href="#me50286e426" x="775.471875" y="259.02758" style="fill: #b6b9b9; stroke: #b6b9b9"/>
     <use xlink:href="#me50286e426" x="843.458542" y="259.579305" style="fill: #b6b9b9; stroke: #b6b9b9"/>
    </g>
   </g>
   <g id="line2d_27">
    <path d="M 503.525208 120.778205 
L 571.511875 228.308613 
L 639.498542 252.631302 
L 707.485208 255.174851 
L 775.471875 257.484618 
L 843.458542 257.746454 
" clip-path="url(#pc132720e71)" style="fill: none; stroke: #8c9295; stroke-width: 3; stroke-linecap: square"/>
    <g clip-path="url(#pc132720e71)">
     <use xlink:href="#mf443adc702" x="503.525208" y="120.778205" style="fill: #8c9295; stroke: #8c9295"/>
     <use xlink:href="#mf443adc702" x="571.511875" y="228.308613" style="fill: #8c9295; stroke: #8c9295"/>
     <use xlink:href="#mf443adc702" x="639.498542" y="252.631302" style="fill: #8c9295; stroke: #8c9295"/>
     <use xlink:href="#mf443adc702" x="707.485208" y="255.174851" style="fill: #8c9295; stroke: #8c9295"/>
     <use xlink:href="#mf443adc702" x="775.471875" y="257.484618" style="fill: #8c9295; stroke: #8c9295"/>
     <use xlink:href="#mf443adc702" x="843.458542" y="257.746454" style="fill: #8c9295; stroke: #8c9295"/>
    </g>
   </g>
   <g id="line2d_28">
    <path d="M 503.525208 133.804542 
L 571.511875 233.115173 
L 639.498542 252.098278 
L 707.485208 255.642415 
L 775.471875 257.7184 
L 843.458542 259.579305 
" clip-path="url(#pc132720e71)" style="fill: none; stroke: #616a72; stroke-width: 3; stroke-linecap: square"/>
    <g clip-path="url(#pc132720e71)">
     <use xlink:href="#m9624d8de57" x="503.525208" y="133.804542" style="fill: #616a72; stroke: #616a72; stroke-linejoin: bevel"/>
     <use xlink:href="#m9624d8de57" x="571.511875" y="233.115173" style="fill: #616a72; stroke: #616a72; stroke-linejoin: bevel"/>
     <use xlink:href="#m9624d8de57" x="639.498542" y="252.098278" style="fill: #616a72; stroke: #616a72; stroke-linejoin: bevel"/>
     <use xlink:href="#m9624d8de57" x="707.485208" y="255.642415" style="fill: #616a72; stroke: #616a72; stroke-linejoin: bevel"/>
     <use xlink:href="#m9624d8de57" x="775.471875" y="257.7184" style="fill: #616a72; stroke: #616a72; stroke-linejoin: bevel"/>
     <use xlink:href="#m9624d8de57" x="843.458542" y="259.579305" style="fill: #616a72; stroke: #616a72; stroke-linejoin: bevel"/>
    </g>
   </g>
   <g id="line2d_29">
    <path d="M 503.525208 115.270299 
L 571.511875 223.277623 
L 639.498542 250.274778 
L 707.485208 255.399282 
L 775.471875 256.512084 
L 843.458542 258.700285 
" clip-path="url(#pc132720e71)" style="fill: none; stroke: #37434e; stroke-width: 3; stroke-linecap: square"/>
    <g clip-path="url(#pc132720e71)">
     <use xlink:href="#me5a2be4755" x="503.525208" y="115.270299" style="fill: #37434e; stroke: #37434e; stroke-linejoin: miter"/>
     <use xlink:href="#me5a2be4755" x="571.511875" y="223.277623" style="fill: #37434e; stroke: #37434e; stroke-linejoin: miter"/>
     <use xlink:href="#me5a2be4755" x="639.498542" y="250.274778" style="fill: #37434e; stroke: #37434e; stroke-linejoin: miter"/>
     <use xlink:href="#me5a2be4755" x="707.485208" y="255.399282" style="fill: #37434e; stroke: #37434e; stroke-linejoin: miter"/>
     <use xlink:href="#me5a2be4755" x="775.471875" y="256.512084" style="fill: #37434e; stroke: #37434e; stroke-linejoin: miter"/>
     <use xlink:href="#me5a2be4755" x="843.458542" y="258.700285" style="fill: #37434e; stroke: #37434e; stroke-linejoin: miter"/>
    </g>
   </g>
   <g id="line2d_30">
    <path d="M 503.525208 82.793291 
L 571.511875 177.802331 
L 639.498542 232.039775 
L 707.485208 243.495098 
L 775.471875 248.226847 
L 843.458542 249.498622 
" clip-path="url(#pc132720e71)" style="fill: none; stroke: #0d1b2a; stroke-width: 3; stroke-linecap: square"/>
    <g clip-path="url(#pc132720e71)">
     <use xlink:href="#m8f6367ee02" x="503.525208" y="82.793291" style="fill: #0d1b2a; stroke: #0d1b2a; stroke-linejoin: miter"/>
     <use xlink:href="#m8f6367ee02" x="571.511875" y="177.802331" style="fill: #0d1b2a; stroke: #0d1b2a; stroke-linejoin: miter"/>
     <use xlink:href="#m8f6367ee02" x="639.498542" y="232.039775" style="fill: #0d1b2a; stroke: #0d1b2a; stroke-linejoin: miter"/>
     <use xlink:href="#m8f6367ee02" x="707.485208" y="243.495098" style="fill: #0d1b2a; stroke: #0d1b2a; stroke-linejoin: miter"/>
     <use xlink:href="#m8f6367ee02" x="775.471875" y="248.226847" style="fill: #0d1b2a; stroke: #0d1b2a; stroke-linejoin: miter"/>
     <use xlink:href="#m8f6367ee02" x="843.458542" y="249.498622" style="fill: #0d1b2a; stroke: #0d1b2a; stroke-linejoin: miter"/>
    </g>
   </g>
   <g id="patch_6">
    <path d="M 486.528542 296.516875 
L 486.528542 28.396875 
" style="fill: none; stroke: #000000; stroke-width: 0.8; stroke-linejoin: miter; stroke-linecap: square"/>
   </g>
   <g id="patch_7">
    <path d="M 486.528542 296.516875 
L 860.455208 296.516875 
" style="fill: none; stroke: #000000; stroke-width: 0.8; stroke-linejoin: miter; stroke-linecap: square"/>
   </g>
   <g id="text_22">
    <!-- ERMI -->
    <g transform="translate(648.646563 22.396875) scale(0.2 -0.2)">
     <defs>
      <path id="DejaVuSans-52" d="M 2841 2188 
Q 3044 2119 3236 1894 
Q 3428 1669 3622 1275 
L 4263 0 
L 3584 0 
L 2988 1197 
Q 2756 1666 2539 1819 
Q 2322 1972 1947 1972 
L 1259 1972 
L 1259 0 
L 628 0 
L 628 4666 
L 2053 4666 
Q 2853 4666 3247 4331 
Q 3641 3997 3641 3322 
Q 3641 2881 3436 2590 
Q 3231 2300 2841 2188 
z
M 1259 4147 
L 1259 2491 
L 2053 2491 
Q 2509 2491 2742 2702 
Q 2975 2913 2975 3322 
Q 2975 3731 2742 3939 
Q 2509 4147 2053 4147 
L 1259 4147 
z
" transform="scale(0.015625)"/>
      <path id="DejaVuSans-4d" d="M 628 4666 
L 1569 4666 
L 2759 1491 
L 3956 4666 
L 4897 4666 
L 4897 0 
L 4281 0 
L 4281 4097 
L 3078 897 
L 2444 897 
L 1241 4097 
L 1241 0 
L 628 0 
L 628 4666 
z
" transform="scale(0.015625)"/>
      <path id="DejaVuSans-49" d="M 628 4666 
L 1259 4666 
L 1259 0 
L 628 0 
L 628 4666 
z
" transform="scale(0.015625)"/>
     </defs>
     <use xlink:href="#DejaVuSans-45"/>
     <use xlink:href="#DejaVuSans-52" x="63.183594"/>
     <use xlink:href="#DejaVuSans-4d" x="132.666016"/>
     <use xlink:href="#DejaVuSans-49" x="218.945312"/>
    </g>
   </g>
  </g>
  <g id="axes_3">
   <g id="patch_8">
    <path d="M 906.875208 296.516875 
L 1280.801875 296.516875 
L 1280.801875 28.396875 
L 906.875208 28.396875 
z
" style="fill: #ffffff"/>
   </g>
   <g id="matplotlib.axis_5">
    <g id="xtick_7">
     <g id="line2d_31">
      <g>
       <use xlink:href="#mb381bb8b92" x="923.871875" y="296.516875" style="stroke: #000000; stroke-width: 0.8"/>
      </g>
     </g>
     <g id="text_23">
      <!-- 1 -->
      <g transform="translate(918.145625 317.194062) scale(0.18 -0.18)">
       <use xlink:href="#DejaVuSans-31"/>
      </g>
     </g>
    </g>
    <g id="xtick_8">
     <g id="line2d_32">
      <g>
       <use xlink:href="#mb381bb8b92" x="1059.845208" y="296.516875" style="stroke: #000000; stroke-width: 0.8"/>
      </g>
     </g>
     <g id="text_24">
      <!-- 3 -->
      <g transform="translate(1054.118958 317.194062) scale(0.18 -0.18)">
       <use xlink:href="#DejaVuSans-33"/>
      </g>
     </g>
    </g>
    <g id="xtick_9">
     <g id="line2d_33">
      <g>
       <use xlink:href="#mb381bb8b92" x="1195.818542" y="296.516875" style="stroke: #000000; stroke-width: 0.8"/>
      </g>
     </g>
     <g id="text_25">
      <!-- 5 -->
      <g transform="translate(1190.092292 317.194062) scale(0.18 -0.18)">
       <use xlink:href="#DejaVuSans-35"/>
      </g>
     </g>
    </g>
   </g>
   <g id="matplotlib.axis_6">
    <g id="ytick_13">
     <g id="line2d_34">
      <g>
       <use xlink:href="#m1c99e2ef59" x="906.875208" y="291.729018" style="stroke: #000000; stroke-width: 0.8"/>
      </g>
     </g>
     <g id="text_26">
      <!-- 0.0 -->
      <g transform="translate(871.249583 298.567612) scale(0.18 -0.18)">
       <use xlink:href="#DejaVuSans-30"/>
       <use xlink:href="#DejaVuSans-2e" x="63.623047"/>
       <use xlink:href="#DejaVuSans-30" x="95.410156"/>
      </g>
     </g>
    </g>
    <g id="ytick_14">
     <g id="line2d_35">
      <g>
       <use xlink:href="#m1c99e2ef59" x="906.875208" y="243.850446" style="stroke: #000000; stroke-width: 0.8"/>
      </g>
     </g>
     <g id="text_27">
      <!-- 0.1 -->
      <g transform="translate(871.249583 250.68904) scale(0.18 -0.18)">
       <use xlink:href="#DejaVuSans-30"/>
       <use xlink:href="#DejaVuSans-2e" x="63.623047"/>
       <use xlink:href="#DejaVuSans-31" x="95.410156"/>
      </g>
     </g>
    </g>
    <g id="ytick_15">
     <g id="line2d_36">
      <g>
       <use xlink:href="#m1c99e2ef59" x="906.875208" y="195.971875" style="stroke: #000000; stroke-width: 0.8"/>
      </g>
     </g>
     <g id="text_28">
      <!-- 0.2 -->
      <g transform="translate(871.249583 202.810469) scale(0.18 -0.18)">
       <use xlink:href="#DejaVuSans-30"/>
       <use xlink:href="#DejaVuSans-2e" x="63.623047"/>
       <use xlink:href="#DejaVuSans-32" x="95.410156"/>
      </g>
     </g>
    </g>
    <g id="ytick_16">
     <g id="line2d_37">
      <g>
       <use xlink:href="#m1c99e2ef59" x="906.875208" y="148.093304" style="stroke: #000000; stroke-width: 0.8"/>
      </g>
     </g>
     <g id="text_29">
      <!-- 0.3 -->
      <g transform="translate(871.249583 154.931897) scale(0.18 -0.18)">
       <use xlink:href="#DejaVuSans-30"/>
       <use xlink:href="#DejaVuSans-2e" x="63.623047"/>
       <use xlink:href="#DejaVuSans-33" x="95.410156"/>
      </g>
     </g>
    </g>
    <g id="ytick_17">
     <g id="line2d_38">
      <g>
       <use xlink:href="#m1c99e2ef59" x="906.875208" y="100.214732" style="stroke: #000000; stroke-width: 0.8"/>
      </g>
     </g>
     <g id="text_30">
      <!-- 0.4 -->
      <g transform="translate(871.249583 107.053326) scale(0.18 -0.18)">
       <use xlink:href="#DejaVuSans-30"/>
       <use xlink:href="#DejaVuSans-2e" x="63.623047"/>
       <use xlink:href="#DejaVuSans-34" x="95.410156"/>
      </g>
     </g>
    </g>
    <g id="ytick_18">
     <g id="line2d_39">
      <g>
       <use xlink:href="#m1c99e2ef59" x="906.875208" y="52.336161" style="stroke: #000000; stroke-width: 0.8"/>
      </g>
     </g>
     <g id="text_31">
      <!-- 0.5 -->
      <g transform="translate(871.249583 59.174754) scale(0.18 -0.18)">
       <use xlink:href="#DejaVuSans-30"/>
       <use xlink:href="#DejaVuSans-2e" x="63.623047"/>
       <use xlink:href="#DejaVuSans-35" x="95.410156"/>
      </g>
     </g>
    </g>
   </g>
   <g id="line2d_40">
    <path d="M 923.871875 184.638915 
L 991.858542 243.850446 
L 1059.845208 243.850446 
L 1127.831875 243.850446 
L 1195.818542 243.850446 
L 1263.805208 243.850446 
" clip-path="url(#pb28350ffbf)" style="fill: none; stroke: #e0e1dd; stroke-width: 3; stroke-linecap: square"/>
    <g clip-path="url(#pb28350ffbf)">
     <use xlink:href="#m5256ac7f04" x="923.871875" y="184.638915" style="fill: #e0e1dd; stroke: #e0e1dd"/>
     <use xlink:href="#m5256ac7f04" x="991.858542" y="243.850446" style="fill: #e0e1dd; stroke: #e0e1dd"/>
     <use xlink:href="#m5256ac7f04" x="1059.845208" y="243.850446" style="fill: #e0e1dd; stroke: #e0e1dd"/>
     <use xlink:href="#m5256ac7f04" x="1127.831875" y="243.850446" style="fill: #e0e1dd; stroke: #e0e1dd"/>
     <use xlink:href="#m5256ac7f04" x="1195.818542" y="243.850446" style="fill: #e0e1dd; stroke: #e0e1dd"/>
     <use xlink:href="#m5256ac7f04" x="1263.805208" y="243.850446" style="fill: #e0e1dd; stroke: #e0e1dd"/>
    </g>
   </g>
   <g id="line2d_41">
    <path d="M 923.871875 95.184935 
L 991.858542 243.532105 
L 1059.845208 243.532105 
L 1127.831875 243.532105 
L 1195.818542 243.850446 
L 1263.805208 243.532105 
" clip-path="url(#pb28350ffbf)" style="fill: none; stroke: #b6b9b9; stroke-width: 3; stroke-linecap: square"/>
    <g clip-path="url(#pb28350ffbf)">
     <use xlink:href="#me50286e426" x="923.871875" y="95.184935" style="fill: #b6b9b9; stroke: #b6b9b9"/>
     <use xlink:href="#me50286e426" x="991.858542" y="243.532105" style="fill: #b6b9b9; stroke: #b6b9b9"/>
     <use xlink:href="#me50286e426" x="1059.845208" y="243.532105" style="fill: #b6b9b9; stroke: #b6b9b9"/>
     <use xlink:href="#me50286e426" x="1127.831875" y="243.532105" style="fill: #b6b9b9; stroke: #b6b9b9"/>
     <use xlink:href="#me50286e426" x="1195.818542" y="243.850446" style="fill: #b6b9b9; stroke: #b6b9b9"/>
     <use xlink:href="#me50286e426" x="1263.805208" y="243.532105" style="fill: #b6b9b9; stroke: #b6b9b9"/>
    </g>
   </g>
   <g id="line2d_42">
    <path d="M 923.871875 128.6108 
L 991.858542 243.213763 
L 1059.845208 243.850446 
L 1127.831875 243.532105 
L 1195.818542 243.850446 
L 1263.805208 243.850446 
" clip-path="url(#pb28350ffbf)" style="fill: none; stroke: #8c9295; stroke-width: 3; stroke-linecap: square"/>
    <g clip-path="url(#pb28350ffbf)">
     <use xlink:href="#mf443adc702" x="923.871875" y="128.6108" style="fill: #8c9295; stroke: #8c9295"/>
     <use xlink:href="#mf443adc702" x="991.858542" y="243.213763" style="fill: #8c9295; stroke: #8c9295"/>
     <use xlink:href="#mf443adc702" x="1059.845208" y="243.850446" style="fill: #8c9295; stroke: #8c9295"/>
     <use xlink:href="#mf443adc702" x="1127.831875" y="243.532105" style="fill: #8c9295; stroke: #8c9295"/>
     <use xlink:href="#mf443adc702" x="1195.818542" y="243.850446" style="fill: #8c9295; stroke: #8c9295"/>
     <use xlink:href="#mf443adc702" x="1263.805208" y="243.850446" style="fill: #8c9295; stroke: #8c9295"/>
    </g>
   </g>
   <g id="line2d_43">
    <path d="M 923.871875 139.116071 
L 991.858542 243.213763 
L 1059.845208 243.850446 
L 1127.831875 243.850446 
L 1195.818542 243.532105 
L 1263.805208 243.850446 
" clip-path="url(#pb28350ffbf)" style="fill: none; stroke: #616a72; stroke-width: 3; stroke-linecap: square"/>
    <g clip-path="url(#pb28350ffbf)">
     <use xlink:href="#m9624d8de57" x="923.871875" y="139.116071" style="fill: #616a72; stroke: #616a72; stroke-linejoin: bevel"/>
     <use xlink:href="#m9624d8de57" x="991.858542" y="243.213763" style="fill: #616a72; stroke: #616a72; stroke-linejoin: bevel"/>
     <use xlink:href="#m9624d8de57" x="1059.845208" y="243.850446" style="fill: #616a72; stroke: #616a72; stroke-linejoin: bevel"/>
     <use xlink:href="#m9624d8de57" x="1127.831875" y="243.850446" style="fill: #616a72; stroke: #616a72; stroke-linejoin: bevel"/>
     <use xlink:href="#m9624d8de57" x="1195.818542" y="243.532105" style="fill: #616a72; stroke: #616a72; stroke-linejoin: bevel"/>
     <use xlink:href="#m9624d8de57" x="1263.805208" y="243.850446" style="fill: #616a72; stroke: #616a72; stroke-linejoin: bevel"/>
    </g>
   </g>
   <g id="line2d_44">
    <path d="M 923.871875 126.382409 
L 991.858542 225.068294 
L 1059.845208 242.258739 
L 1127.831875 243.213763 
L 1195.818542 243.850446 
L 1263.805208 243.850446 
" clip-path="url(#pb28350ffbf)" style="fill: none; stroke: #37434e; stroke-width: 3; stroke-linecap: square"/>
    <g clip-path="url(#pb28350ffbf)">
     <use xlink:href="#me5a2be4755" x="923.871875" y="126.382409" style="fill: #37434e; stroke: #37434e; stroke-linejoin: miter"/>
     <use xlink:href="#me5a2be4755" x="991.858542" y="225.068294" style="fill: #37434e; stroke: #37434e; stroke-linejoin: miter"/>
     <use xlink:href="#me5a2be4755" x="1059.845208" y="242.258739" style="fill: #37434e; stroke: #37434e; stroke-linejoin: miter"/>
     <use xlink:href="#me5a2be4755" x="1127.831875" y="243.213763" style="fill: #37434e; stroke: #37434e; stroke-linejoin: miter"/>
     <use xlink:href="#me5a2be4755" x="1195.818542" y="243.850446" style="fill: #37434e; stroke: #37434e; stroke-linejoin: miter"/>
     <use xlink:href="#me5a2be4755" x="1263.805208" y="243.850446" style="fill: #37434e; stroke: #37434e; stroke-linejoin: miter"/>
    </g>
   </g>
   <g id="line2d_45">
    <path d="M 923.871875 81.496248 
L 991.858542 202.784384 
L 1059.845208 235.891907 
L 1127.831875 241.622055 
L 1195.818542 242.57708 
L 1263.805208 242.57708 
" clip-path="url(#pb28350ffbf)" style="fill: none; stroke: #0d1b2a; stroke-width: 3; stroke-linecap: square"/>
    <g clip-path="url(#pb28350ffbf)">
     <use xlink:href="#m8f6367ee02" x="923.871875" y="81.496248" style="fill: #0d1b2a; stroke: #0d1b2a; stroke-linejoin: miter"/>
     <use xlink:href="#m8f6367ee02" x="991.858542" y="202.784384" style="fill: #0d1b2a; stroke: #0d1b2a; stroke-linejoin: miter"/>
     <use xlink:href="#m8f6367ee02" x="1059.845208" y="235.891907" style="fill: #0d1b2a; stroke: #0d1b2a; stroke-linejoin: miter"/>
     <use xlink:href="#m8f6367ee02" x="1127.831875" y="241.622055" style="fill: #0d1b2a; stroke: #0d1b2a; stroke-linejoin: miter"/>
     <use xlink:href="#m8f6367ee02" x="1195.818542" y="242.57708" style="fill: #0d1b2a; stroke: #0d1b2a; stroke-linejoin: miter"/>
     <use xlink:href="#m8f6367ee02" x="1263.805208" y="242.57708" style="fill: #0d1b2a; stroke: #0d1b2a; stroke-linejoin: miter"/>
    </g>
   </g>
   <g id="patch_9">
    <path d="M 906.875208 296.516875 
L 906.875208 28.396875 
" style="fill: none; stroke: #000000; stroke-width: 0.8; stroke-linejoin: miter; stroke-linecap: square"/>
   </g>
   <g id="patch_10">
    <path d="M 906.875208 296.516875 
L 1280.801875 296.516875 
" style="fill: none; stroke: #000000; stroke-width: 0.8; stroke-linejoin: miter; stroke-linecap: square"/>
   </g>
   <g id="text_32">
    <!-- LLM -->
    <g transform="translate(1074.066667 22.396875) scale(0.2 -0.2)">
     <defs>
      <path id="DejaVuSans-4c" d="M 628 4666 
L 1259 4666 
L 1259 531 
L 3531 531 
L 3531 0 
L 628 0 
L 628 4666 
z
" transform="scale(0.015625)"/>
     </defs>
     <use xlink:href="#DejaVuSans-4c"/>
     <use xlink:href="#DejaVuSans-4c" x="55.712891"/>
     <use xlink:href="#DejaVuSans-4d" x="111.425781"/>
    </g>
   </g>
  </g>
 </g>
 <defs>
  <clipPath id="p68b8e4cc83">
   <rect x="66.181875" y="28.396875" width="373.926667" height="268.12"/>
  </clipPath>
  <clipPath id="pc132720e71">
   <rect x="486.528542" y="28.396875" width="373.926667" height="268.12"/>
  </clipPath>
  <clipPath id="pb28350ffbf">
   <rect x="906.875208" y="28.396875" width="373.926667" height="268.12"/>
  </clipPath>
 </defs>
</svg>
